Coordinates
version=1
nRows=14
nColumns=24
inDegrees=yes

Units are S.I. units (second, meters, Newtons, ...)
Angles are in degrees.

endheader
time	pelvis_tilt	pelvis_list	pelvis_rotation	pelvis_tx	pelvis_ty	pelvis_tz	hip_flexion_r	hip_adduction_r	hip_rotation_r	knee_angle_r	ankle_angle_r	subtalar_angle_r	mtp_angle_r	hip_flexion_l	hip_adduction_l	hip_rotation_l	knee_angle_l	ankle_angle_l	subtalar_angle_l	mtp_angle_l	lumbar_extension	lumbar_bending	lumbar_rotation
      0.80033333	      4.96368055	     -2.34736310	      6.74465168	     -0.39745392	      0.91561009	      0.32422793	      6.90262731	      8.01316876	     -8.76334963	    -23.72273897	     14.44985960	      0.99336057	      2.82689793	      8.13697632	     -7.46046008	     -4.37648655	    -70.14086327	     -0.81414049	     -8.77615117	      5.47047707	    -11.41803964	      5.41849963	     -2.15829583
      0.80450000	      4.92149787	     -2.20948784	      6.54998477	     -0.39225386	      0.91670172	      0.32469227	      6.32385348	      7.94627737	     -8.55709168	    -23.24504176	     14.48598268	      1.15291397	      2.82918371	      8.71978607	     -7.17723625	     -4.54915091	    -69.78305003	     -0.18573417	     -8.79558847	      5.43699027	    -11.39615150	      5.23258945	     -1.87255606
      0.80866667	      4.89080851	     -2.06861236	      6.34581406	     -0.38705352	      0.91780261	      0.32517202	      5.72452580	      7.87454672	     -8.34795036	    -22.74882644	     14.51591849	      1.32169769	      2.83324967	      9.27037128	     -6.89560448	     -4.73408429	    -69.35428499	      0.42452750	     -8.77078370	      5.41099909	    -11.38853366	      5.04010372	     -1.60833073
      0.81283333	      4.87232460	     -1.92233904	      6.13170755	     -0.38186202	      0.91891596	      0.32565441	      5.10498961	      7.79389122	     -8.13709092	    -22.23521182	     14.53220514	      1.49395385	      2.83937056	      9.78867970	     -6.60923585	     -4.92910371	    -68.85502914	      1.00694024	     -8.73474919	      5.39001786	    -11.39530526	      4.84106993	     -1.33993983
      0.81700000	      4.87032601	     -1.77256394	      5.90674582	     -0.37667335	      0.92003767	      0.32614527	      4.46017689	      7.70689904	     -7.92538159	    -21.70399463	     14.53852720	      1.67233774	      2.84742939	     10.26909303	     -6.32413524	     -5.13935760	    -68.28889930	      1.56564206	     -8.67100584	      5.37359515	    -11.42140166	      4.63875377	     -1.06263316
      0.82116667	      4.87845008	     -1.61968571	      5.67470941	     -0.37149440	      0.92115717	      0.32663839	      3.79921023	      7.61198804	     -7.71462714	    -21.15835681	     14.53697527	      1.85612039	      2.85780424	     10.72017839	     -6.03723710	     -5.35274747	    -67.65532174	      2.09612218	     -8.59267436	      5.36054723	    -11.45757571	      4.43366062	     -0.77792569
      0.82533333	      4.90144788	     -1.46445433	      5.43435238	     -0.36632866	      0.92227724	      0.32714023	      3.11660106	      7.51138778	     -7.50488862	    -20.59541371	     14.52329230	      2.04330799	      2.87106622	     11.13753788	     -5.75254577	     -5.57719916	    -66.95847527	      2.60277631	     -8.49756004	      5.34969220	    -11.51460256	      4.22526614	     -0.48590044
      0.82950000	      4.93370416	     -1.30631987	      5.18664380	     -0.36116709	      0.92338038	      0.32764656	      2.42067767	      7.40358141	     -7.29455776	    -20.02338265	     14.50206707	      2.22977189	      2.88653026	     11.52637660	     -5.46731756	     -5.80936931	    -66.19921355	      3.08710872	     -8.39057400	      5.34208925	    -11.57949681	      4.01077111	     -0.19821143
      0.83366667	      4.97440682	     -1.14569260	      4.93167385	     -0.35602095	      0.92446205	      0.32816714	      1.71389743	      7.28955491	     -7.08470640	    -19.44159810	     14.47520416	      2.41625804	      2.90374669	     11.88928868	     -5.18301399	     -6.04766076	    -65.38093794	      3.54738355	     -8.26632448	      5.33724027	    -11.65612719	      3.79254412	      0.08909526
      0.83783333	      5.00486768	     -0.97588635	      4.66066735	     -0.35090466	      0.92549515	      0.32867304	      1.03096529	      7.15185585	     -6.87992407	    -18.88071483	     14.41130191	      2.60558379	      2.91716014	     12.24443584	     -4.88324688	     -6.29365760	    -64.50197133	      3.99766826	     -8.14908248	      5.33689306	    -11.72676261	      3.57461787	      0.32465049
      0.84200000	      5.08427086	     -0.82602122	      4.40875506	     -0.34577622	      0.92655015	      0.32920293	      0.26464172	      7.04639690	     -6.67631612	    -18.24920151	     14.39973952	      2.79285178	      2.93984699	     12.53815699	     -4.62429826	     -6.53327142	    -63.57597219	      4.39341261	     -7.99093994	      5.33411435	    -11.84557226	      3.35338805	      0.66722583
      0.84616667	      5.14641343	     -0.66416787	      4.13646445	     -0.34067119	      0.92754015	      0.32972837	     -0.46680674	      6.91455737	     -6.47195565	    -17.64713415	     14.34870181	      2.97554360	      2.96319061	     12.82898364	     -4.34664077	     -6.78459151	    -62.58970296	      4.78155332	     -7.84154504	      5.33177368	    -11.95021619	      3.13283756	      0.96536325
      0.85033333	      5.20840699	     -0.50849728	      3.86443696	     -0.33559445	      0.92847542	      0.33025775	     -1.19586521	      6.78508426	     -6.27127117	    -17.03912596	     14.29856008	      3.15729137	      2.98923009	     13.10966782	     -4.07646847	     -7.03019814	    -61.55535964	      5.14112963	     -7.69010856	      5.32881103	    -12.05111858	      2.91288960	      1.26032855
      0.85450000	      5.27461742	     -0.35363738	      3.58851200	     -0.33052805	      0.92936061	      0.33078472	     -1.92779102	      6.64995939	     -6.07550736	    -16.42930377	     14.24269141	      3.34141762	      3.01839806	     13.37027911	     -3.81047432	     -7.27826125	    -60.47120307	      5.47578235	     -7.53953546	      5.32524980	    -12.16204901	      2.69144389	      1.55307881
